<svg width="378" height="52" viewBox="0 0 378 52" fill="none" xmlns="http://www.w3.org/2000/svg">
    <path d="M42 0H10C4.47715 0 0 4.47715 0 10V42C0 47.5228 4.47715 52 10 52H42C47.5228 52 52 47.5228 52 42V10C52 4.47715 47.5228 0 42 0Z" fill="#00828A"/>
    <path d="M39.2999 12.8037L38.4922 13.6115L37.8184 14.2853L24.3571 27.7466L26.3218 39.0438C26.3389 39.141 26.3783 39.2329 26.4371 39.3121C26.4959 39.3914 26.5723 39.4559 26.6603 39.5005C26.7483 39.5451 26.8455 39.5686 26.9442 39.569C27.0429 39.5695 27.1403 39.547 27.2287 39.5033L33.3244 36.443C33.4708 36.3696 33.5821 36.2412 33.6339 36.0858L39.29 14.4093L39.5113 13.7842C39.5715 13.6171 39.5833 13.4365 39.5454 13.2631C39.5075 13.0896 39.4213 12.9304 39.2969 12.8037" fill="#ADDAD8"/>
    <path d="M39.3 12.8028L38.4923 13.6106L37.8185 14.2843L24.3611 27.7457L13.0639 25.7809C12.9667 25.7639 12.8749 25.7244 12.7956 25.6656C12.7163 25.6069 12.6519 25.5305 12.6073 25.4424C12.5627 25.3544 12.5392 25.2572 12.5387 25.1586C12.5382 25.0599 12.5607 24.9624 12.6045 24.874L15.6647 18.7783C15.7381 18.6319 15.8665 18.5206 16.0219 18.4688L37.6984 12.8128L38.3236 12.5915C38.4905 12.5311 38.6711 12.5191 38.8445 12.5569C39.018 12.5946 39.1772 12.6806 39.304 12.8048" fill="white"/>
    <path d="M62.736 6.4H74.064V40H62.736V6.4ZM97.4213 13.264C100.653 13.264 103.245 14.24 105.197 16.192C107.181 18.144 108.173 21.088 108.173 25.024V40H97.3253V26.896C97.3253 23.888 96.2533 22.384 94.1093 22.384C92.8933 22.384 91.9013 22.816 91.1333 23.68C90.3973 24.512 90.0293 25.84 90.0293 27.664V40H79.1813V13.744H89.5013V16.336C90.5253 15.312 91.7093 14.544 93.0533 14.032C94.3973 13.52 95.8533 13.264 97.4213 13.264ZM132.228 39.088C130.596 40.016 128.372 40.48 125.556 40.48C121.876 40.48 119.044 39.6 117.06 37.84C115.076 36.048 114.084 33.376 114.084 29.824V23.104H110.484V15.184H114.084V7.84H124.932V15.184H130.308V23.104H124.932V29.728C124.932 30.528 125.14 31.152 125.556 31.6C125.972 32.048 126.516 32.272 127.188 32.272C128.116 32.272 128.932 32.032 129.636 31.552L132.228 39.088ZM162.195 26.848C162.195 27.008 162.147 27.856 162.051 29.392H143.811C144.195 30.384 144.835 31.152 145.731 31.696C146.627 32.208 147.747 32.464 149.091 32.464C150.243 32.464 151.203 32.32 151.971 32.032C152.771 31.744 153.635 31.248 154.563 30.544L160.227 36.256C157.667 39.072 153.843 40.48 148.755 40.48C145.587 40.48 142.803 39.904 140.403 38.752C138.003 37.568 136.147 35.936 134.835 33.856C133.523 31.776 132.867 29.44 132.867 26.848C132.867 24.224 133.507 21.888 134.787 19.84C136.099 17.76 137.875 16.144 140.115 14.992C142.387 13.84 144.931 13.264 147.747 13.264C150.403 13.264 152.819 13.792 154.995 14.848C157.203 15.904 158.947 17.456 160.227 19.504C161.539 21.552 162.195 24 162.195 26.848ZM147.843 20.656C146.723 20.656 145.795 20.96 145.059 21.568C144.323 22.176 143.843 23.04 143.619 24.16H152.067C151.843 23.072 151.363 22.224 150.627 21.616C149.891 20.976 148.963 20.656 147.843 20.656ZM175.939 16.576C177.859 14.368 180.691 13.264 184.435 13.264V22.864C183.571 22.736 182.771 22.672 182.035 22.672C178.323 22.672 176.467 24.56 176.467 28.336V40H165.619V13.744H175.939V16.576ZM205.749 13.264C208.981 13.264 211.573 14.24 213.525 16.192C215.509 18.144 216.501 21.088 216.501 25.024V40H205.653V26.896C205.653 23.888 204.581 22.384 202.437 22.384C201.221 22.384 200.229 22.816 199.461 23.68C198.725 24.512 198.357 25.84 198.357 27.664V40H187.509V13.744H197.829V16.336C198.853 15.312 200.037 14.544 201.381 14.032C202.725 13.52 204.181 13.264 205.749 13.264ZM231.484 40.48C229.245 40.48 227.037 40.24 224.861 39.76C222.685 39.28 220.925 38.656 219.581 37.888L222.557 30.736C223.773 31.472 225.213 32.048 226.877 32.464C228.541 32.88 230.157 33.088 231.725 33.088C232.973 33.088 233.837 32.992 234.317 32.8C234.829 32.576 235.085 32.256 235.085 31.84C235.085 31.424 234.765 31.136 234.125 30.976C233.517 30.816 232.509 30.656 231.101 30.496C228.957 30.24 227.133 29.92 225.629 29.536C224.125 29.12 222.797 28.336 221.645 27.184C220.525 26.032 219.965 24.384 219.965 22.24C219.965 20.544 220.477 19.024 221.501 17.68C222.525 16.336 224.045 15.264 226.061 14.464C228.109 13.664 230.557 13.264 233.405 13.264C235.389 13.264 237.325 13.456 239.213 13.84C241.133 14.192 242.765 14.72 244.109 15.424L241.133 22.576C238.829 21.296 236.301 20.656 233.549 20.656C231.181 20.656 229.997 21.072 229.997 21.904C229.997 22.32 230.317 22.624 230.957 22.816C231.597 22.976 232.605 23.136 233.981 23.296C236.125 23.552 237.933 23.888 239.405 24.304C240.909 24.72 242.221 25.504 243.341 26.656C244.493 27.808 245.069 29.456 245.069 31.6C245.069 33.232 244.557 34.72 243.533 36.064C242.509 37.408 240.973 38.48 238.925 39.28C236.877 40.08 234.397 40.48 231.484 40.48ZM289.96 22.432C291.944 23.168 293.48 24.24 294.568 25.648C295.656 27.056 296.2 28.752 296.2 30.736C296.2 33.68 294.984 35.968 292.552 37.6C290.12 39.2 286.6 40 281.992 40H263.08V6.4H281.032C285.512 6.4 288.888 7.2 291.16 8.8C293.464 10.4 294.616 12.528 294.616 15.184C294.616 16.752 294.216 18.16 293.416 19.408C292.648 20.656 291.496 21.664 289.96 22.432ZM274.216 14.32V19.312H279.496C281.96 19.312 283.192 18.48 283.192 16.816C283.192 15.152 281.96 14.32 279.496 14.32H274.216ZM281.032 32.08C283.528 32.08 284.776 31.2 284.776 29.44C284.776 27.68 283.528 26.8 281.032 26.8H274.216V32.08H281.032ZM299.869 4.384H310.717V40H299.869V4.384ZM329.397 40.48C326.485 40.48 323.861 39.904 321.525 38.752C319.221 37.568 317.413 35.952 316.101 33.904C314.789 31.824 314.133 29.472 314.133 26.848C314.133 24.224 314.789 21.888 316.101 19.84C317.413 17.76 319.221 16.144 321.525 14.992C323.861 13.84 326.485 13.264 329.397 13.264C332.341 13.264 334.965 13.84 337.269 14.992C339.605 16.144 341.413 17.76 342.693 19.84C344.005 21.888 344.661 24.224 344.661 26.848C344.661 29.472 344.005 31.824 342.693 33.904C341.413 35.952 339.605 37.568 337.269 38.752C334.965 39.904 332.341 40.48 329.397 40.48ZM329.397 32.032C330.645 32.032 331.669 31.584 332.469 30.688C333.269 29.76 333.669 28.48 333.669 26.848C333.669 25.216 333.269 23.952 332.469 23.056C331.669 22.16 330.645 21.712 329.397 21.712C328.149 21.712 327.125 22.16 326.325 23.056C325.525 23.952 325.125 25.216 325.125 26.848C325.125 28.48 325.525 29.76 326.325 30.688C327.125 31.584 328.149 32.032 329.397 32.032ZM377.384 13.744V34.768C377.384 39.76 375.992 43.504 373.208 46C370.456 48.528 366.52 49.792 361.4 49.792C358.776 49.792 356.328 49.504 354.056 48.928C351.784 48.384 349.848 47.584 348.248 46.528L351.896 39.136C352.92 39.904 354.216 40.528 355.784 41.008C357.352 41.488 358.856 41.728 360.296 41.728C362.472 41.728 364.056 41.264 365.048 40.336C366.04 39.408 366.536 38.048 366.536 36.256V35.776C364.904 37.632 362.488 38.56 359.288 38.56C357.048 38.56 354.952 38.048 353 37.024C351.08 35.968 349.544 34.48 348.392 32.56C347.24 30.608 346.664 28.384 346.664 25.888C346.664 23.392 347.24 21.184 348.392 19.264C349.544 17.344 351.08 15.872 353 14.848C354.952 13.792 357.048 13.264 359.288 13.264C362.872 13.264 365.464 14.416 367.064 16.72V13.744H377.384ZM362.168 30.112C363.448 30.112 364.504 29.728 365.336 28.96C366.2 28.16 366.632 27.136 366.632 25.888C366.632 24.64 366.2 23.632 365.336 22.864C364.504 22.096 363.448 21.712 362.168 21.712C360.856 21.712 359.768 22.096 358.904 22.864C358.072 23.632 357.656 24.64 357.656 25.888C357.656 27.136 358.088 28.16 358.952 28.96C359.816 29.728 360.888 30.112 362.168 30.112Z" fill="#313131"/>
</svg>